<svg width="30" height="30" viewBox="0 0 30 30" fill="none" xmlns="http://www.w3.org/2000/svg">
<path d="M18.75 23.125C15.625 23.125 12.9 21.35 11.55 18.75H18.75L20 16.25H10.725C10.6625 15.8375 10.625 15.425 10.625 15C10.625 14.575 10.6625 14.1625 10.725 13.75H18.75L20 11.25H11.55C12.2346 9.93148 13.268 8.82623 14.5376 8.05475C15.8073 7.28327 17.2644 6.87519 18.75 6.875C20.7625 6.875 22.6125 7.6125 24.0375 8.8375L26.25 6.625C24.1918 4.77184 21.5196 3.7475 18.75 3.75C13.85 3.75 9.7 6.875 8.125 11.25H3.75L2.5 13.75H7.575C7.5 14.1625 7.5 14.575 7.5 15C7.5 15.425 7.5 15.8375 7.575 16.25H3.75L2.5 18.75H8.125C9.7 23.125 13.85 26.25 18.75 26.25C21.6375 26.25 24.2625 25.1625 26.25 23.375L24.025 21.1625C22.6125 22.3875 20.775 23.125 18.75 23.125Z" fill="#02001E"/>
</svg>
