<svg width="16" height="24" viewBox="0 0 16 24" fill="none" xmlns="http://www.w3.org/2000/svg">
<path d="M11.2375 10.75H15.5V8.25H13.4C13.925 7.425 14.25 6.6 14.25 5.75C14.25 2.4625 11.125 0.75 8 0.75C5.0625 0.75 2.4125 3.325 2.1125 3.6125L3.8875 5.3875C4.4875 4.7875 6.3875 3.25 8 3.25C9.3 3.25 11.75 3.775 11.75 5.75C11.75 6.375 11.125 7.3 10.2 8.25H0.5V10.75H7.5375C7.0125 11.2 5.1875 12.8375 4.7625 13.25H0.5V15.75H2.6C2.075 16.575 1.75 17.4 1.75 18.25C1.75 21.5375 4.875 23.25 8 23.25C10.9375 23.25 13.5875 20.675 13.8875 20.3875L12.1125 18.6125C11.525 19.2125 9.6125 20.75 8 20.75C6.7 20.75 4.25 20.225 4.25 18.25C4.25 17.625 4.875 16.7 5.8 15.75H15.5V13.25H8.475L11.2375 10.75Z" fill="#02001E"/>
</svg>
