<svg width="48" height="20" viewBox="0 0 48 20" fill="none" xmlns="http://www.w3.org/2000/svg">
<g clip-path="url(#clip0_455_9243)">
<path d="M8.77134 2.55129C8.20887 3.21963 7.30873 3.74696 6.40868 3.67156C6.29619 2.76789 6.73679 1.80754 7.25248 1.21441C7.81496 0.527239 8.79947 0.0376532 9.59639 0C9.69014 0.941424 9.32453 1.86402 8.77144 2.55129H8.77134ZM9.58702 3.85051C8.28377 3.7752 7.16811 4.59416 6.5493 4.59416C5.92121 4.59416 4.9742 3.88816 3.94291 3.90699C2.60226 3.92582 1.35526 4.68829 0.670828 5.9028C-0.735536 8.33171 0.305222 11.9281 1.66462 13.905C2.3303 14.8841 3.12723 15.9573 4.17727 15.9197C5.17116 15.882 5.56489 15.2702 6.76501 15.2702C7.97442 15.2702 8.32137 15.9197 9.37141 15.9009C10.4589 15.882 11.1434 14.9219 11.8091 13.9427C12.5684 12.8318 12.8778 11.7491 12.8966 11.6926C12.8778 11.6738 10.7965 10.8737 10.7778 8.4635C10.759 6.44886 12.4185 5.48861 12.4935 5.43213C11.5559 4.03878 10.0933 3.88816 9.58702 3.85051ZM17.1157 1.12028V15.7974H19.3845V10.7795H22.5253C25.3942 10.7795 27.41 8.80257 27.41 5.94055C27.41 3.07862 25.4317 1.12037 22.6003 1.12037H17.1156L17.1157 1.12028ZM19.3845 3.04087H22.0003C23.9692 3.04087 25.0942 4.09526 25.0942 5.94986C25.0942 7.80447 23.9692 8.86836 21.9909 8.86836H19.3845V3.04087ZM31.554 15.9103C32.9791 15.9103 34.301 15.1854 34.9011 14.0368H34.948V15.7973H37.0481V8.49174C37.0481 6.37356 35.3605 5.00844 32.7634 5.00844C30.3539 5.00844 28.5726 6.39238 28.5069 8.29406H30.5509C30.7196 7.39029 31.5539 6.79716 32.6978 6.79716C34.0854 6.79716 34.8636 7.44677 34.8636 8.64244V9.45199L32.0321 9.62143C29.3976 9.78145 27.9726 10.8642 27.9726 12.7471C27.9726 14.6488 29.4445 15.9103 31.554 15.9103ZM32.1634 14.1686C30.9541 14.1686 30.1852 13.585 30.1852 12.6905C30.1852 11.768 30.9258 11.2314 32.3416 11.1467L34.8636 10.9866V11.815C34.8636 13.1895 33.7011 14.1686 32.1635 14.1686H32.1634ZM39.8514 19.789C42.0641 19.789 43.1047 18.9418 44.0142 16.3716L47.9988 5.14964H45.6924L43.0204 13.8202H42.9735L40.3015 5.14964H37.9294L41.7734 15.835L41.5671 16.4846C41.2203 17.586 40.6577 18.0097 39.6545 18.0097C39.4764 18.0097 39.1296 17.9909 38.9889 17.9721V19.7325C39.1201 19.7702 39.6826 19.789 39.8514 19.789Z" fill="black"/>
</g>
<defs>
<clipPath id="clip0_455_9243">
<rect width="48" height="19.8621" fill="white"/>
</clipPath>
</defs>
</svg>
