<svg width="19" height="19" viewBox="0 0 19 19" fill="none" xmlns="http://www.w3.org/2000/svg">
<g clip-path="url(#clip0_455_9556)">
<path d="M5.8121 7.98357L9.50225 4.29492L13.1939 7.98657L15.3399 5.83911L9.50225 0L3.66464 5.83761L5.8121 7.98357Z" fill="#F3BA2F"/>
<path d="M0 9.50073L2.14596 7.35327L4.29342 9.50073L2.14596 11.6467L0 9.50073Z" fill="#F3BA2F"/>
<path d="M5.8121 11.0164L9.50225 14.7065L13.1939 11.0149L15.3414 13.1594L9.50375 18.9985L3.66464 13.1639L5.8121 11.0164Z" fill="#F3BA2F"/>
<path d="M14.7066 9.50073L16.8525 7.35327L19 9.49923L16.8525 11.6482L14.7066 9.50073Z" fill="#F3BA2F"/>
<path d="M11.6797 9.49929L9.50224 7.32031L7.89202 8.93053L7.70594 9.11512L7.32477 9.49629L9.50224 11.6723L11.6797 9.50079V9.49929Z" fill="#F3BA2F"/>
</g>
<defs>
<clipPath id="clip0_455_9556">
<rect width="19" height="19" fill="white"/>
</clipPath>
</defs>
</svg>
