<svg width="47" height="18" viewBox="0 0 47 18" fill="none" xmlns="http://www.w3.org/2000/svg">
<path d="M16.3541 7.53112H15.75V7.5H9V10.5H13.2386C12.6202 12.2464 10.9586 13.5 9 13.5C6.51487 13.5 4.5 11.4851 4.5 9C4.5 6.51487 6.51487 4.5 9 4.5C10.1471 4.5 11.1907 4.93275 11.9854 5.63962L14.1067 3.51825C12.7672 2.26987 10.9755 1.5 9 1.5C4.85812 1.5 1.5 4.85812 1.5 9C1.5 13.1419 4.85812 16.5 9 16.5C13.1419 16.5 16.5 13.1419 16.5 9C16.5 8.49712 16.4482 8.00625 16.3541 7.53112Z" fill="#FFC107"/>
<path d="M2.36475 5.50913L4.82887 7.31625C5.49562 5.6655 7.11037 4.5 9 4.5C10.1471 4.5 11.1907 4.93275 11.9854 5.63963L14.1067 3.51825C12.7672 2.26988 10.9755 1.5 9 1.5C6.11925 1.5 3.621 3.12638 2.36475 5.50913Z" fill="#FF3D00"/>
<path d="M9 16.5C10.9372 16.5 12.6975 15.7586 14.0284 14.553L11.7071 12.5888C10.9288 13.1807 9.97779 13.5008 9 13.5C7.04925 13.5 5.39287 12.2561 4.76887 10.5203L2.32312 12.4046C3.56437 14.8335 6.08512 16.5 9 16.5Z" fill="#4CAF50"/>
<path d="M16.3541 7.53113H15.75V7.5H9V10.5H13.2386C12.9428 11.3312 12.41 12.0574 11.706 12.5891L11.7071 12.5884L14.0284 14.5526C13.8641 14.7019 16.5 12.75 16.5 9C16.5 8.49713 16.4482 8.00625 16.3541 7.53113Z" fill="#1976D2"/>
<path d="M20.71 14V3.5H24.64C25.53 3.5 26.295 3.645 26.935 3.935C27.575 4.215 28.065 4.625 28.405 5.165C28.755 5.695 28.93 6.34 28.93 7.1C28.93 7.84 28.755 8.48 28.405 9.02C28.065 9.55 27.575 9.96 26.935 10.25C26.295 10.54 25.53 10.685 24.64 10.685H21.325L21.82 10.16V14H20.71ZM21.82 10.25L21.325 9.71H24.61C25.66 9.71 26.455 9.485 26.995 9.035C27.545 8.575 27.82 7.93 27.82 7.1C27.82 6.26 27.545 5.61 26.995 5.15C26.455 4.69 25.66 4.46 24.61 4.46H21.325L21.82 3.935V10.25ZM35.9669 14V12.26L35.9219 11.975V9.065C35.9219 8.395 35.7319 7.88 35.3519 7.52C34.9819 7.16 34.4269 6.98 33.6869 6.98C33.1769 6.98 32.6919 7.065 32.2319 7.235C31.7719 7.405 31.3819 7.63 31.0619 7.91L30.5819 7.115C30.9819 6.775 31.4619 6.515 32.0219 6.335C32.5819 6.145 33.1719 6.05 33.7919 6.05C34.8119 6.05 35.5969 6.305 36.1469 6.815C36.7069 7.315 36.9869 8.08 36.9869 9.11V14H35.9669ZM33.2519 14.075C32.6619 14.075 32.1469 13.98 31.7069 13.79C31.2769 13.59 30.9469 13.32 30.7169 12.98C30.4869 12.63 30.3719 12.23 30.3719 11.78C30.3719 11.37 30.4669 11 30.6569 10.67C30.8569 10.33 31.1769 10.06 31.6169 9.86C32.0669 9.65 32.6669 9.545 33.4169 9.545H36.1319V10.34H33.4469C32.6869 10.34 32.1569 10.475 31.8569 10.745C31.5669 11.015 31.4219 11.35 31.4219 11.75C31.4219 12.2 31.5969 12.56 31.9469 12.83C32.2969 13.1 32.7869 13.235 33.4169 13.235C34.0169 13.235 34.5319 13.1 34.9619 12.83C35.4019 12.55 35.7219 12.15 35.9219 11.63L36.1619 12.365C35.9619 12.885 35.6119 13.3 35.1119 13.61C34.6219 13.92 34.0019 14.075 33.2519 14.075ZM39.793 16.985C39.423 16.985 39.068 16.925 38.728 16.805C38.398 16.685 38.113 16.505 37.873 16.265L38.368 15.47C38.568 15.66 38.783 15.805 39.013 15.905C39.253 16.015 39.518 16.07 39.808 16.07C40.158 16.07 40.458 15.97 40.708 15.77C40.968 15.58 41.213 15.24 41.443 14.75L41.953 13.595L42.073 13.43L45.313 6.125H46.363L42.418 14.945C42.198 15.455 41.953 15.86 41.683 16.16C41.423 16.46 41.138 16.67 40.828 16.79C40.518 16.92 40.173 16.985 39.793 16.985ZM41.893 14.225L38.263 6.125H39.373L42.583 13.355L41.893 14.225Z" fill="#646464"/>
</svg>
