<svg width="24" height="19" viewBox="0 0 24 19" fill="none" xmlns="http://www.w3.org/2000/svg">
<g clip-path="url(#clip0_455_9238)">
<path d="M4.36452 18.4883V17.2585C4.36452 16.787 4.07638 16.4796 3.5825 16.4796C3.33561 16.4796 3.0681 16.5616 2.88288 16.8281C2.73891 16.6026 2.53316 16.4796 2.2245 16.4796C2.01866 16.4796 1.81301 16.541 1.64833 16.7665V16.5206H1.21622V18.4883H1.64833V17.4019C1.64833 17.0535 1.83354 16.8895 2.12168 16.8895C2.40962 16.8895 2.55379 17.074 2.55379 17.4019V18.4883H2.98589V17.4019C2.98589 17.0535 3.19154 16.8895 3.45906 16.8895C3.74719 16.8895 3.89117 17.074 3.89117 17.4019V18.4883H4.36452ZM10.7638 16.5206H10.0642V15.9262H9.63212V16.5206H9.24116V16.9099H9.63203V17.8119C9.63203 18.2629 9.81724 18.5293 10.3111 18.5293C10.4963 18.5293 10.702 18.4678 10.8462 18.3858L10.7226 18.0168C10.5992 18.0988 10.4552 18.1194 10.3523 18.1194C10.1465 18.1194 10.0642 17.9964 10.0642 17.7914V16.9099H10.7638V16.5206ZM14.4265 16.4795C14.1796 16.4795 14.015 16.6026 13.9121 16.7665V16.5206H13.48V18.4883H13.9121V17.3815C13.9121 17.0535 14.056 16.8691 14.3235 16.8691C14.4058 16.8691 14.5088 16.8896 14.5911 16.91L14.7145 16.5001C14.6322 16.4796 14.5088 16.4796 14.4265 16.4796V16.4795ZM8.89135 16.6845C8.68551 16.541 8.39747 16.4796 8.08881 16.4796C7.59502 16.4796 7.26583 16.7255 7.26583 17.115C7.26583 17.443 7.51273 17.6274 7.94483 17.6889L8.15058 17.7095C8.37694 17.7504 8.50039 17.8119 8.50039 17.9144C8.50039 18.0578 8.33579 18.1604 8.04766 18.1604C7.75962 18.1604 7.53325 18.0578 7.38918 17.9554L7.18344 18.2833C7.40981 18.4473 7.71847 18.5293 8.02704 18.5293C8.60321 18.5293 8.9325 18.2629 8.9325 17.8939C8.9325 17.5454 8.66498 17.3609 8.2534 17.2995L8.04766 17.2789C7.86244 17.2584 7.71847 17.2175 7.71847 17.0945C7.71847 16.951 7.86244 16.8691 8.08881 16.8691C8.33579 16.8691 8.58269 16.9715 8.70613 17.033L8.89135 16.6845ZM20.3732 16.4796C20.1262 16.4796 19.9616 16.6026 19.8587 16.7665V16.5206H19.4266V18.4883H19.8587V17.3815C19.8587 17.0535 20.0027 16.8691 20.2702 16.8691C20.3525 16.8691 20.4555 16.8896 20.5378 16.91L20.6612 16.5001C20.5789 16.4796 20.4555 16.4796 20.3732 16.4796ZM14.8586 17.5044C14.8586 18.0988 15.2701 18.5293 15.908 18.5293C16.196 18.5293 16.4018 18.4678 16.6075 18.3039L16.4018 17.9554C16.2372 18.0784 16.0726 18.1398 15.8874 18.1398C15.5376 18.1398 15.2907 17.8939 15.2907 17.5044C15.2907 17.1355 15.5376 16.8895 15.8874 16.8691C16.0726 16.8691 16.2372 16.9305 16.4018 17.0535L16.6075 16.7051C16.4018 16.541 16.196 16.4796 15.908 16.4796C15.2701 16.4796 14.8586 16.91 14.8586 17.5044ZM18.8505 17.5044V16.5206H18.4184V16.7665C18.2743 16.5821 18.0686 16.4796 17.801 16.4796C17.2455 16.4796 16.8134 16.91 16.8134 17.5044C16.8134 18.0988 17.2455 18.5293 17.801 18.5293C18.0891 18.5293 18.2949 18.4268 18.4184 18.2423V18.4883H18.8505V17.5044ZM17.266 17.5044C17.266 17.156 17.4924 16.8691 17.8627 16.8691C18.2125 16.8691 18.4595 17.1355 18.4595 17.5044C18.4595 17.8529 18.2125 18.1398 17.8627 18.1398C17.4924 18.1193 17.266 17.8529 17.266 17.5044ZM12.1013 16.4796C11.5252 16.4796 11.1136 16.8895 11.1136 17.5044C11.1136 18.1194 11.5251 18.5293 12.1219 18.5293C12.4099 18.5293 12.698 18.4473 12.9244 18.2629L12.7186 17.9554C12.554 18.0784 12.3482 18.1604 12.1425 18.1604C11.875 18.1604 11.6074 18.0374 11.5457 17.6888H13.0067V17.525C13.0273 16.8895 12.6569 16.4796 12.1012 16.4796H12.1013ZM12.1013 16.8485C12.3687 16.8485 12.5541 17.0126 12.5951 17.32H11.5663C11.6074 17.0535 11.7927 16.8485 12.1013 16.8485ZM22.8217 17.5044V15.7417H22.3896V16.7665C22.2456 16.5821 22.0398 16.4796 21.7723 16.4796C21.2168 16.4796 20.7847 16.91 20.7847 17.5044C20.7847 18.0988 21.2168 18.5293 21.7723 18.5293C22.0604 18.5293 22.2662 18.4268 22.3896 18.2423V18.4883H22.8217V17.5044ZM21.2374 17.5044C21.2374 17.156 21.4637 16.8691 21.8341 16.8691C22.1839 16.8691 22.4308 17.1355 22.4308 17.5044C22.4308 17.8529 22.1839 18.1398 21.8341 18.1398C21.4637 18.1193 21.2374 17.8529 21.2374 17.5044ZM6.79248 17.5044V16.5206H6.36037V16.7665C6.21631 16.5821 6.01056 16.4796 5.74305 16.4796C5.18749 16.4796 4.75538 16.91 4.75538 17.5044C4.75538 18.0988 5.18749 18.5293 5.74305 18.5293C6.03118 18.5293 6.23693 18.4268 6.36037 18.2423V18.4883H6.79248V17.5044ZM5.18749 17.5044C5.18749 17.156 5.41386 16.8691 5.7842 16.8691C6.13401 16.8691 6.38099 17.1355 6.38099 17.5044C6.38099 17.8529 6.13401 18.1398 5.7842 18.1398C5.41386 18.1193 5.18749 17.8529 5.18749 17.5044Z" fill="black"/>
<path d="M8.74728 1.57812H15.2289V13.1795H8.74728V1.57812Z" fill="#FF5F00"/>
<path d="M9.15884 7.37895C9.15884 5.02182 10.27 2.93107 11.9778 1.57823C10.7227 0.594394 9.13831 0 7.40988 0C3.31497 0 0.00216675 3.29998 0.00216675 7.37895C0.00216675 11.4578 3.31497 14.7579 7.40979 14.7579C9.13822 14.7579 10.7226 14.1635 11.9778 13.1796C10.27 11.8473 9.15884 9.73607 9.15884 7.37895Z" fill="#EB001B"/>
<path d="M23.974 7.37895C23.974 11.4578 20.6612 14.7579 16.5664 14.7579C14.838 14.7579 13.2536 14.1635 11.9984 13.1796C13.7268 11.8268 14.8174 9.73607 14.8174 7.37895C14.8174 5.02182 13.7062 2.93107 11.9984 1.57823C13.2535 0.594394 14.838 0 16.5664 0C20.6612 0 23.9741 3.32052 23.9741 7.37895H23.974Z" fill="#F79E1B"/>
</g>
<defs>
<clipPath id="clip0_455_9238">
<rect width="24" height="18.5807" fill="white"/>
</clipPath>
</defs>
</svg>
