<svg width="20" height="20" viewBox="0 0 20 20" fill="none" xmlns="http://www.w3.org/2000/svg">
<g clip-path="url(#clip0_455_9548)">
<path d="M20 10C20 15.5225 15.5225 20 10 20C4.47746 20 0 15.5225 0 10C0 4.47746 4.47746 0 10 0C15.5237 0 20 4.47746 20 10Z" fill="#2081E2"/>
<path d="M4.93357 10.336L4.97671 10.2682L7.57811 6.19866C7.61613 6.13908 7.70551 6.14524 7.73427 6.20996C8.16887 7.18394 8.54387 8.39526 8.36819 9.14938C8.29319 9.45966 8.08771 9.87986 7.85653 10.2682C7.82675 10.3247 7.79387 10.3802 7.75893 10.4336C7.74249 10.4583 7.71475 10.4727 7.68495 10.4727H5.00959C4.93767 10.4727 4.89555 10.3946 4.93357 10.336Z" fill="white"/>
<path d="M16.5289 11.0922V11.7364C16.5289 11.7734 16.5063 11.8062 16.4734 11.8206C16.2721 11.9069 15.5827 12.2234 15.296 12.622C14.5645 13.6402 14.0056 15.096 12.7563 15.096H7.54421C5.69695 15.096 4.20001 13.5939 4.20001 11.7405V11.6809C4.20001 11.6316 4.24007 11.5915 4.28939 11.5915H7.19491C7.25243 11.5915 7.29455 11.6449 7.28943 11.7014C7.26887 11.8905 7.30381 12.0836 7.39319 12.2593C7.56579 12.6097 7.92333 12.8285 8.30963 12.8285H9.74801V11.7056H8.32607C8.25313 11.7056 8.20999 11.6213 8.25211 11.5617C8.26751 11.5381 8.28499 11.5134 8.30347 11.4857C8.43807 11.2946 8.63019 10.9977 8.82129 10.6597C8.95177 10.4316 9.07813 10.1881 9.17985 9.94356C9.20041 9.89938 9.21683 9.85416 9.23327 9.80998C9.26101 9.7319 9.28979 9.65896 9.31033 9.58602C9.33089 9.52436 9.34731 9.45964 9.36375 9.39902C9.41205 9.19148 9.43259 8.97162 9.43259 8.74354C9.43259 8.65416 9.42849 8.56066 9.42027 8.47128C9.41615 8.37368 9.40383 8.27606 9.39149 8.17846C9.38327 8.09216 9.36787 8.00688 9.35143 7.9175C9.33089 7.78702 9.30211 7.65758 9.26923 7.52708L9.25793 7.47778C9.23327 7.38838 9.21273 7.30312 9.18397 7.21374C9.10279 6.93324 9.00931 6.65996 8.91067 6.40414C8.87471 6.30242 8.83361 6.20482 8.79251 6.10722C8.73191 5.9603 8.67025 5.82674 8.61375 5.70036C8.58499 5.64282 8.56033 5.59042 8.53567 5.537C8.50793 5.47638 8.47917 5.41576 8.45039 5.35824C8.42985 5.31406 8.40621 5.27296 8.38977 5.23186L8.21409 4.9072C8.18943 4.86302 8.23053 4.81062 8.27881 4.82398L9.37815 5.12192H9.38123C9.38327 5.12192 9.38431 5.12296 9.38533 5.12296L9.53019 5.16302L9.68945 5.20824L9.74801 5.22466V4.57124C9.74801 4.25582 10.0008 4 10.3131 4C10.4693 4 10.611 4.0637 10.7128 4.16746C10.8145 4.27124 10.8782 4.41302 10.8782 4.57124V5.54112L10.9953 5.57398C11.0045 5.57708 11.0138 5.58118 11.022 5.58734C11.0508 5.60892 11.0919 5.64076 11.1443 5.67982C11.1854 5.71268 11.2295 5.75276 11.283 5.79386C11.3888 5.87912 11.5152 5.98906 11.6539 6.11544C11.6908 6.14728 11.7268 6.18016 11.7597 6.21304C11.9385 6.37948 12.1388 6.57468 12.3299 6.79044C12.3833 6.85106 12.4357 6.9127 12.4891 6.97742C12.5426 7.04318 12.5991 7.1079 12.6484 7.17264C12.7131 7.25894 12.783 7.34832 12.8436 7.44182C12.8724 7.486 12.9052 7.5312 12.933 7.57538C13.0111 7.69352 13.0799 7.8158 13.1457 7.93806C13.1734 7.99456 13.2022 8.0562 13.2268 8.11682C13.2998 8.28018 13.3573 8.44662 13.3943 8.61306C13.4056 8.64902 13.4138 8.68806 13.4179 8.723V8.73122C13.4302 8.78052 13.4344 8.83292 13.4385 8.88634C13.4549 9.0569 13.4467 9.22744 13.4097 9.39902C13.3943 9.47198 13.3737 9.5408 13.3491 9.61376C13.3244 9.68362 13.2998 9.75656 13.2679 9.8254C13.2063 9.9682 13.1333 10.111 13.047 10.2446C13.0193 10.2939 12.9864 10.3463 12.9535 10.3956C12.9176 10.448 12.8806 10.4973 12.8477 10.5456C12.8025 10.6073 12.7542 10.672 12.7049 10.7295C12.6607 10.7901 12.6155 10.8508 12.5662 10.9042C12.4974 10.9853 12.4316 11.0624 12.3628 11.1364C12.3217 11.1847 12.2775 11.234 12.2323 11.2782C12.1881 11.3275 12.1429 11.3716 12.1018 11.4127C12.033 11.4816 11.9754 11.535 11.9271 11.5792L11.8141 11.683C11.7977 11.6973 11.7761 11.7056 11.7535 11.7056H10.8782V12.8285H11.9795C12.2261 12.8285 12.4604 12.7412 12.6494 12.5809C12.7141 12.5244 12.9967 12.2799 13.3306 11.911C13.3419 11.8987 13.3563 11.8895 13.3727 11.8854L16.4149 11.0059C16.4714 10.9895 16.5289 11.0326 16.5289 11.0922Z" fill="white"/>
</g>
<defs>
<clipPath id="clip0_455_9548">
<rect width="20" height="20" fill="white"/>
</clipPath>
</defs>
</svg>
