<svg width="20" height="20" viewBox="0 0 20 20" fill="none" xmlns="http://www.w3.org/2000/svg">
<rect width="20" height="20" rx="3" fill="#FEDA03"/>
<path fill-rule="evenodd" clip-rule="evenodd" d="M16.4131 7.77007C16.4131 9.11978 15.7096 9.7911 14.919 10.0243C15.8652 10.3423 16.55 11.2115 16.55 12.5894V15.1193H12.9394V12.7167C12.9394 11.9817 12.5534 11.6849 11.8936 11.6849H7.61062V15.1193H4V5H12.5783C14.7322 5 16.4131 5.52292 16.4131 7.77007ZM7.61223 7.82721H12.4934C12.5006 7.82692 12.508 7.82721 12.5153 7.82721C12.8509 7.82721 13.1231 8.13607 13.1231 8.51706C13.1231 8.89805 12.8509 9.20691 12.5153 9.20691C12.508 9.20691 12.5006 9.20676 12.4934 9.20647L7.61223 9.20691V7.82721Z" fill="black"/>
</svg>
