<svg width="22" height="22" viewBox="0 0 22 22" fill="none" xmlns="http://www.w3.org/2000/svg">
<mask id="mask0_455_9253" style="mask-type:luminance" maskUnits="userSpaceOnUse" x="1" y="1" width="20" height="20">
<path d="M1 20.8613H21V1H1V20.8613Z" fill="#F05024"/>
</mask>
<g mask="url(#mask0_455_9253)">
<path fill-rule="evenodd" clip-rule="evenodd" d="M16.4 5.88548C15.858 5.4946 15.2875 5.1393 14.6928 4.82214C14.1252 4.5219 13.537 4.25688 12.9321 4.02881C12.2893 4.07948 11.6285 4.18747 10.9593 4.35281C12.1012 4.63079 13.1988 5.04841 14.2235 5.59481C15.3157 6.17481 16.2735 6.86414 17.0785 7.61614C16.9057 7.02223 16.6787 6.44323 16.4 5.88548Z" fill="#F05024"/>
</g>
<mask id="mask1_455_9253" style="mask-type:luminance" maskUnits="userSpaceOnUse" x="0" y="0" width="22" height="22">
<path d="M1 20.8613H21V1H1V20.8613Z" stroke="#F05024" stroke-width="0.5"/>
</mask>
<g mask="url(#mask1_455_9253)">
<path fill-rule="evenodd" clip-rule="evenodd" d="M16.4 5.88548C15.858 5.4946 15.2875 5.1393 14.6928 4.82214C14.1252 4.5219 13.537 4.25688 12.9321 4.02881C12.2893 4.07948 11.6285 4.18747 10.9593 4.35281C12.1012 4.63079 13.1988 5.04841 14.2235 5.59481C15.3157 6.17481 16.2735 6.86414 17.0785 7.61614C16.9057 7.02223 16.6787 6.44323 16.4 5.88548Z" stroke="#F05024" stroke-width="0.5"/>
</g>
<mask id="mask2_455_9253" style="mask-type:luminance" maskUnits="userSpaceOnUse" x="1" y="1" width="20" height="20">
<path d="M1 20.8613H21V1H1V20.8613Z" fill="#F05024"/>
</mask>
<g mask="url(#mask2_455_9253)">
<path fill-rule="evenodd" clip-rule="evenodd" d="M8.98855 4.03741C9.62793 3.79196 10.2862 3.59183 10.9578 3.43875C10.0455 3.2297 9.1101 3.12096 8.17069 3.11475C8.03498 3.11475 7.90141 3.11941 7.76784 3.12408C7.40212 3.40675 7.05569 3.73741 6.73355 4.11075C7.19212 4.04075 7.67284 4.00408 8.17069 4.00408C8.43855 4.00408 8.71212 4.01675 8.98855 4.03741Z" fill="#F05024"/>
</g>
<mask id="mask3_455_9253" style="mask-type:luminance" maskUnits="userSpaceOnUse" x="0" y="0" width="22" height="22">
<path d="M1 20.8613H21V1H1V20.8613Z" stroke="#F05024" stroke-width="0.5"/>
</mask>
<g mask="url(#mask3_455_9253)">
<path fill-rule="evenodd" clip-rule="evenodd" d="M8.98855 4.03741C9.62793 3.79196 10.2862 3.59183 10.9578 3.43875C10.0455 3.2297 9.1101 3.12096 8.17069 3.11475C8.03498 3.11475 7.90141 3.11941 7.76784 3.12408C7.40212 3.40675 7.05569 3.73741 6.73355 4.11075C7.19212 4.04075 7.67284 4.00408 8.17069 4.00408C8.43855 4.00408 8.71212 4.01675 8.98855 4.03741Z" stroke="#F05024" stroke-width="0.5"/>
</g>
<mask id="mask4_455_9253" style="mask-type:luminance" maskUnits="userSpaceOnUse" x="1" y="1" width="20" height="20">
<path d="M1 20.8613H21V1H1V20.8613Z" fill="#F05024"/>
</mask>
<g mask="url(#mask4_455_9253)">
<path fill-rule="evenodd" clip-rule="evenodd" d="M20.4571 10.9048C20.291 11.3661 20.0843 11.8139 19.8393 12.2435C19.8928 12.5455 19.9228 12.8448 19.9228 13.1368C19.9221 13.9335 19.7264 14.6821 19.3157 15.3575C18.8228 16.1688 18.0728 16.7868 17.125 17.2121C16.9706 17.2799 16.8133 17.3418 16.6535 17.3975C16.3807 17.811 16.0721 18.2029 15.7307 18.5695C16.3707 18.4475 16.9771 18.2628 17.5357 18.0135C18.6328 17.5235 19.5457 16.7801 20.1428 15.7961C20.64 14.9795 20.8735 14.0701 20.8735 13.1368C20.8728 12.4008 20.7271 11.6495 20.4571 10.9048Z" fill="#F05024"/>
</g>
<mask id="mask5_455_9253" style="mask-type:luminance" maskUnits="userSpaceOnUse" x="0" y="0" width="22" height="22">
<path d="M1 20.8613H21V1H1V20.8613Z" stroke="#F05024" stroke-width="0.5"/>
</mask>
<g mask="url(#mask5_455_9253)">
<path fill-rule="evenodd" clip-rule="evenodd" d="M20.4571 10.9048C20.291 11.3661 20.0843 11.8139 19.8393 12.2435C19.8928 12.5455 19.9228 12.8448 19.9228 13.1368C19.9221 13.9335 19.7264 14.6821 19.3157 15.3575C18.8228 16.1688 18.0728 16.7868 17.125 17.2121C16.9706 17.2799 16.8133 17.3418 16.6535 17.3975C16.3807 17.811 16.0721 18.2029 15.7307 18.5695C16.3707 18.4475 16.9771 18.2628 17.5357 18.0135C18.6328 17.5235 19.5457 16.7801 20.1428 15.7961C20.64 14.9795 20.8735 14.0701 20.8735 13.1368C20.8728 12.4008 20.7271 11.6495 20.4571 10.9048Z" stroke="#F05024" stroke-width="0.5"/>
</g>
<mask id="mask6_455_9253" style="mask-type:luminance" maskUnits="userSpaceOnUse" x="1" y="1" width="20" height="20">
<path d="M1 20.8613H21V1H1V20.8613Z" fill="#F05024"/>
</mask>
<g mask="url(#mask6_455_9253)">
<path fill-rule="evenodd" clip-rule="evenodd" d="M17.9286 7.15869C18.1164 7.75536 18.26 8.38136 18.3571 9.02869C18.3771 9.05603 18.4 9.08336 18.4207 9.11069C18.8363 9.67036 19.1796 10.2739 19.4436 10.9087C19.6257 10.4594 19.7564 10.012 19.8307 9.57269C19.641 9.23988 19.4316 8.91716 19.2036 8.60603C18.8211 8.09268 18.3947 7.6091 17.9286 7.16002" fill="#F05024"/>
</g>
<mask id="mask7_455_9253" style="mask-type:luminance" maskUnits="userSpaceOnUse" x="0" y="0" width="22" height="22">
<path d="M1 20.8613H21V1H1V20.8613Z" stroke="#F05024" stroke-width="0.5"/>
</mask>
<g mask="url(#mask7_455_9253)">
<path fill-rule="evenodd" clip-rule="evenodd" d="M17.9286 7.15869C18.1164 7.75536 18.26 8.38136 18.3571 9.02869C18.3771 9.05603 18.4 9.08336 18.4207 9.11069C18.8363 9.67036 19.1796 10.2739 19.4436 10.9087C19.6257 10.4594 19.7564 10.012 19.8307 9.57269C19.641 9.23988 19.4316 8.91716 19.2036 8.60603C18.8211 8.09268 18.3947 7.6091 17.9286 7.16002V7.15869Z" stroke="#F05024" stroke-width="0.5"/>
</g>
<mask id="mask8_455_9253" style="mask-type:luminance" maskUnits="userSpaceOnUse" x="1" y="1" width="20" height="20">
<path d="M1 20.8613H21V1H1V20.8613Z" fill="#F05024"/>
</mask>
<g mask="url(#mask8_455_9253)">
<path fill-rule="evenodd" clip-rule="evenodd" d="M4.03074 14.7026C3.83908 14.09 3.69631 13.465 3.6036 12.8326C3.58217 12.8053 3.55932 12.778 3.53932 12.7506C3.12348 12.191 2.77991 11.5875 2.51574 10.9526C2.33796 11.3846 2.20823 11.8325 2.1286 12.2893C2.31574 12.616 2.52289 12.9386 2.75646 13.2553C3.12503 13.7553 3.55432 14.2393 4.03074 14.702" fill="#F05024"/>
</g>
<mask id="mask9_455_9253" style="mask-type:luminance" maskUnits="userSpaceOnUse" x="0" y="0" width="22" height="22">
<path d="M1 20.8613H21V1H1V20.8613Z" stroke="#F05024" stroke-width="0.5"/>
</mask>
<g mask="url(#mask9_455_9253)">
<path fill-rule="evenodd" clip-rule="evenodd" d="M4.03074 14.7026C3.83908 14.09 3.69631 13.465 3.6036 12.8326C3.58217 12.8053 3.55932 12.778 3.53932 12.7506C3.12348 12.191 2.77991 11.5875 2.51574 10.9526C2.33796 11.3846 2.20823 11.8325 2.1286 12.2893C2.31574 12.616 2.52289 12.9386 2.75646 13.2553C3.12503 13.7553 3.55432 14.2393 4.03074 14.702V14.7026Z" stroke="#F05024" stroke-width="0.5"/>
</g>
<mask id="mask10_455_9253" style="mask-type:luminance" maskUnits="userSpaceOnUse" x="1" y="1" width="20" height="20">
<path d="M1 20.8613H21V1H1V20.8613Z" fill="#F05024"/>
</mask>
<g mask="url(#mask10_455_9253)">
<path fill-rule="evenodd" clip-rule="evenodd" d="M2.03712 8.7249C2.03712 7.9289 2.23355 7.18024 2.64355 6.5049C3.13712 5.6929 3.88712 5.0749 4.83426 4.65024C4.98641 4.58224 5.14426 4.52157 5.30569 4.46357C5.58641 4.04024 5.89498 3.64957 6.22927 3.29224C5.58855 3.41424 4.98212 3.5989 4.42427 3.84824C3.32712 4.33824 2.41426 5.08157 1.81712 6.06557C1.31926 6.88224 1.08569 7.79157 1.08569 8.7249C1.08569 9.46157 1.23141 10.2122 1.50212 10.9569C1.66805 10.4958 1.87446 10.0483 2.11926 9.6189C2.06578 9.32349 2.03807 9.0245 2.03641 8.7249" fill="#F05024"/>
</g>
<mask id="mask11_455_9253" style="mask-type:luminance" maskUnits="userSpaceOnUse" x="0" y="0" width="22" height="22">
<path d="M1 20.8613H21V1H1V20.8613Z" stroke="#F05024" stroke-width="0.5"/>
</mask>
<g mask="url(#mask11_455_9253)">
<path fill-rule="evenodd" clip-rule="evenodd" d="M2.03712 8.7249C2.03712 7.9289 2.23355 7.18024 2.64355 6.5049C3.13712 5.6929 3.88712 5.0749 4.83426 4.65024C4.98641 4.58224 5.14426 4.52157 5.30569 4.46357C5.58641 4.04024 5.89498 3.64957 6.22927 3.29224C5.58855 3.41424 4.98212 3.5989 4.42427 3.84824C3.32712 4.33824 2.41426 5.08157 1.81712 6.06557C1.31926 6.88224 1.08569 7.79157 1.08569 8.7249C1.08569 9.46157 1.23141 10.2122 1.50212 10.9569C1.66805 10.4958 1.87446 10.0483 2.11926 9.6189C2.06578 9.32349 2.03807 9.0245 2.03641 8.7249H2.03712Z" stroke="#F05024" stroke-width="0.5"/>
</g>
<mask id="mask12_455_9253" style="mask-type:luminance" maskUnits="userSpaceOnUse" x="1" y="1" width="20" height="20">
<path d="M1 20.8613H21V1H1V20.8613Z" fill="#F05024"/>
</mask>
<g mask="url(#mask12_455_9253)">
<path fill-rule="evenodd" clip-rule="evenodd" d="M12.9714 17.8241C12.315 18.0761 11.6564 18.2734 11.0014 18.4227C11.914 18.6318 12.8497 18.7403 13.7893 18.7461C13.925 18.7461 14.0579 18.7427 14.1914 18.7374C14.5579 18.4547 14.9043 18.1247 15.2264 17.7507C14.7512 17.8223 14.2706 17.858 13.7893 17.8574C13.5214 17.8574 13.2479 17.8447 12.9714 17.8241Z" fill="#F05024"/>
</g>
<mask id="mask13_455_9253" style="mask-type:luminance" maskUnits="userSpaceOnUse" x="0" y="0" width="22" height="22">
<path d="M1 20.8613H21V1H1V20.8613Z" stroke="#F05024" stroke-width="0.5"/>
</mask>
<g mask="url(#mask13_455_9253)">
<path fill-rule="evenodd" clip-rule="evenodd" d="M12.9714 17.8241C12.315 18.0761 11.6564 18.2734 11.0014 18.4227C11.914 18.6318 12.8497 18.7403 13.7893 18.7461C13.925 18.7461 14.0579 18.7427 14.1914 18.7374C14.5579 18.4547 14.9043 18.1247 15.2264 17.7507C14.7512 17.8223 14.2706 17.858 13.7893 17.8574C13.5214 17.8574 13.2479 17.8447 12.9714 17.8241Z" stroke="#F05024" stroke-width="0.5"/>
</g>
<mask id="mask14_455_9253" style="mask-type:luminance" maskUnits="userSpaceOnUse" x="1" y="1" width="20" height="20">
<path d="M1 20.8613H21V1H1V20.8613Z" fill="#F05024"/>
</mask>
<g mask="url(#mask14_455_9253)">
<path fill-rule="evenodd" clip-rule="evenodd" d="M7.73571 16.2667C6.69151 15.7151 5.73128 15.0352 4.88071 14.2454C5.06142 14.8594 5.28999 15.4387 5.55928 15.976C6.08999 16.3574 6.65714 16.716 7.26642 17.04C7.84642 17.3474 8.43571 17.6094 9.02714 17.8334C9.66999 17.782 10.3307 17.674 11 17.5087C9.85801 17.2308 8.76041 16.8131 7.73571 16.2667Z" fill="#F05024"/>
</g>
<mask id="mask15_455_9253" style="mask-type:luminance" maskUnits="userSpaceOnUse" x="0" y="0" width="22" height="22">
<path d="M1 20.8613H21V1H1V20.8613Z" stroke="#F05024" stroke-width="0.5"/>
</mask>
<g mask="url(#mask15_455_9253)">
<path fill-rule="evenodd" clip-rule="evenodd" d="M7.73571 16.2667C6.69151 15.7151 5.73128 15.0352 4.88071 14.2454C5.06142 14.8594 5.28999 15.4387 5.55928 15.976C6.08999 16.3574 6.65714 16.716 7.26642 17.04C7.84642 17.3474 8.43571 17.6094 9.02714 17.8334C9.66999 17.782 10.3307 17.674 11 17.5087C9.85801 17.2308 8.76041 16.8131 7.73571 16.2667Z" stroke="#F05024" stroke-width="0.5"/>
</g>
<mask id="mask16_455_9253" style="mask-type:luminance" maskUnits="userSpaceOnUse" x="1" y="1" width="20" height="20">
<path d="M1 20.8613H21V1H1V20.8613Z" fill="#389ED8"/>
</mask>
<g mask="url(#mask16_455_9253)">
<path fill-rule="evenodd" clip-rule="evenodd" d="M4.88072 14.2454C4.56761 13.1649 4.41051 12.0501 4.41357 10.9307C4.41357 9.76408 4.58 8.65208 4.87786 7.63208C4.41039 8.07007 3.98407 8.5447 3.60357 9.05075C3.51098 9.6737 3.46397 10.3018 3.46286 10.9307C3.46286 11.5814 3.51143 12.2167 3.60286 12.8327C3.98477 13.3373 4.41254 13.8101 4.88143 14.2461" fill="#389ED8"/>
</g>
<mask id="mask17_455_9253" style="mask-type:luminance" maskUnits="userSpaceOnUse" x="0" y="0" width="22" height="22">
<path d="M1 20.8613H21V1H1V20.8613Z" stroke="#389ED8" stroke-width="0.5"/>
</mask>
<g mask="url(#mask17_455_9253)">
<path fill-rule="evenodd" clip-rule="evenodd" d="M4.88072 14.2454C4.56761 13.1649 4.41051 12.0501 4.41357 10.9307C4.41357 9.76408 4.58 8.65208 4.87786 7.63208C4.41039 8.07007 3.98407 8.5447 3.60357 9.05075C3.51098 9.6737 3.46397 10.3018 3.46286 10.9307C3.46286 11.5814 3.51143 12.2167 3.60286 12.8327C3.98477 13.3373 4.41254 13.8101 4.88143 14.2461L4.88072 14.2454Z" stroke="#389ED8" stroke-width="0.5"/>
</g>
<mask id="mask18_455_9253" style="mask-type:luminance" maskUnits="userSpaceOnUse" x="1" y="1" width="20" height="20">
<path d="M1 20.8613H21V1H1V20.8613Z" fill="#389ED8"/>
</mask>
<g mask="url(#mask18_455_9253)">
<path fill-rule="evenodd" clip-rule="evenodd" d="M16.4 5.88531C16.9426 6.27383 17.4536 6.69945 17.9286 7.15864C17.6328 6.20388 17.2004 5.29075 16.6429 4.44398C16.1785 4.28091 15.6974 4.16274 15.2072 4.09131C15.6529 4.60598 16.0536 5.19798 16.3886 5.86198L16.4 5.88531Z" fill="#389ED8"/>
</g>
<mask id="mask19_455_9253" style="mask-type:luminance" maskUnits="userSpaceOnUse" x="0" y="0" width="22" height="22">
<path d="M1 20.8613H21V1H1V20.8613Z" stroke="#389ED8" stroke-width="0.5"/>
</mask>
<g mask="url(#mask19_455_9253)">
<path fill-rule="evenodd" clip-rule="evenodd" d="M16.4 5.88531C16.9426 6.27383 17.4536 6.69945 17.9286 7.15864C17.6328 6.20388 17.2004 5.29075 16.6429 4.44398C16.1785 4.28091 15.6974 4.16274 15.2072 4.09131C15.6529 4.60598 16.0536 5.19798 16.3886 5.86198L16.4 5.88531Z" stroke="#389ED8" stroke-width="0.5"/>
</g>
<mask id="mask20_455_9253" style="mask-type:luminance" maskUnits="userSpaceOnUse" x="1" y="1" width="20" height="20">
<path d="M1 20.8613H21V1H1V20.8613Z" fill="#389ED8"/>
</mask>
<g mask="url(#mask20_455_9253)">
<path fill-rule="evenodd" clip-rule="evenodd" d="M18.3572 9.06145C17.9753 8.55355 17.5476 8.07714 17.0786 7.63745C17.3793 8.66145 17.5464 9.70412 17.5464 10.9741C17.5464 11.8208 17.38 13.2308 17.0822 14.2508C17.5492 13.8164 17.9753 13.3453 18.3557 12.8428C18.4565 12.2244 18.5038 11.5995 18.4972 10.9741C18.4972 10.5501 18.4479 9.67745 18.3564 9.06078" fill="#389ED8"/>
</g>
<mask id="mask21_455_9253" style="mask-type:luminance" maskUnits="userSpaceOnUse" x="0" y="0" width="22" height="22">
<path d="M1 20.8613H21V1H1V20.8613Z" stroke="#389ED8" stroke-width="0.5"/>
</mask>
<g mask="url(#mask21_455_9253)">
<path fill-rule="evenodd" clip-rule="evenodd" d="M18.3572 9.06145C17.9753 8.55355 17.5476 8.07714 17.0786 7.63745C17.3793 8.66145 17.5464 9.70412 17.5464 10.9741C17.5464 11.8208 17.38 13.2308 17.0822 14.2508C17.5492 13.8164 17.9753 13.3453 18.3557 12.8428C18.4565 12.2244 18.5038 11.5995 18.4972 10.9741C18.4972 10.5501 18.4479 9.67745 18.3564 9.06078L18.3572 9.06145Z" stroke="#389ED8" stroke-width="0.5"/>
</g>
<mask id="mask22_455_9253" style="mask-type:luminance" maskUnits="userSpaceOnUse" x="1" y="1" width="20" height="20">
<path d="M1 20.8613H21V1H1V20.8613Z" fill="#389ED8"/>
</mask>
<g mask="url(#mask22_455_9253)">
<path fill-rule="evenodd" clip-rule="evenodd" d="M8.48501 2.64474C9.26215 2.20608 10.1 1.97008 10.98 1.96941C11.8593 1.97008 12.6971 2.20608 13.475 2.64474C13.7121 2.77874 13.9429 2.93741 14.1679 3.10875C14.7 3.12608 15.2179 3.18008 15.715 3.27341C15.19 2.71608 14.6043 2.24474 13.9664 1.88408C13.0593 1.37074 12.045 1.08008 10.98 1.08008C9.91572 1.08008 8.90072 1.37008 7.99286 1.88341C7.34858 2.24808 6.75858 2.72674 6.22858 3.29141C6.73594 3.19651 7.25073 3.14032 7.76786 3.12341C7.9941 2.94737 8.23378 2.78694 8.48501 2.64341" fill="#389ED8"/>
</g>
<mask id="mask23_455_9253" style="mask-type:luminance" maskUnits="userSpaceOnUse" x="0" y="0" width="22" height="22">
<path d="M1 20.8613H21V1H1V20.8613Z" stroke="#389ED8" stroke-width="0.5"/>
</mask>
<g mask="url(#mask23_455_9253)">
<path fill-rule="evenodd" clip-rule="evenodd" d="M8.48501 2.64474C9.26215 2.20608 10.1 1.97008 10.98 1.96941C11.8593 1.97008 12.6971 2.20608 13.475 2.64474C13.7121 2.77874 13.9429 2.93741 14.1679 3.10874C14.7 3.12608 15.2179 3.18008 15.715 3.27341C15.19 2.71608 14.6043 2.24474 13.9664 1.88408C13.0593 1.37074 12.045 1.08008 10.98 1.08008C9.91572 1.08008 8.90072 1.37008 7.99286 1.88341C7.34858 2.24808 6.75858 2.72674 6.22858 3.29141C6.73594 3.19651 7.25073 3.14032 7.76786 3.12341C7.9941 2.94737 8.23378 2.78694 8.48501 2.64341V2.64474Z" stroke="#389ED8" stroke-width="0.5"/>
</g>
<mask id="mask24_455_9253" style="mask-type:luminance" maskUnits="userSpaceOnUse" x="1" y="1" width="20" height="20">
<path d="M1 20.8613H21V1H1V20.8613Z" fill="#389ED8"/>
</mask>
<g mask="url(#mask24_455_9253)">
<path fill-rule="evenodd" clip-rule="evenodd" d="M17.9286 14.688C17.4556 15.1484 16.9466 15.5754 16.4057 15.9653C16.1697 16.4409 15.89 16.8966 15.57 17.3273C15.4603 17.472 15.3458 17.6134 15.2264 17.7513C15.7138 17.679 16.192 17.5603 16.6536 17.3973C16.8679 17.0747 17.0679 16.736 17.2486 16.3793C17.5221 15.8329 17.7495 15.2674 17.9286 14.688Z" fill="#389ED8"/>
</g>
<mask id="mask25_455_9253" style="mask-type:luminance" maskUnits="userSpaceOnUse" x="0" y="0" width="22" height="22">
<path d="M1 20.8613H21V1H1V20.8613Z" stroke="#389ED8" stroke-width="0.5"/>
</mask>
<g mask="url(#mask25_455_9253)">
<path fill-rule="evenodd" clip-rule="evenodd" d="M17.9286 14.688C17.4556 15.1484 16.9466 15.5754 16.4057 15.9653C16.1697 16.4409 15.89 16.8966 15.57 17.3273C15.4603 17.472 15.3458 17.6134 15.2264 17.7513C15.7138 17.679 16.192 17.5603 16.6536 17.3973C16.8679 17.0747 17.0679 16.736 17.2486 16.3793C17.5221 15.8329 17.7495 15.2674 17.9286 14.688Z" stroke="#389ED8" stroke-width="0.5"/>
</g>
<mask id="mask26_455_9253" style="mask-type:luminance" maskUnits="userSpaceOnUse" x="1" y="1" width="20" height="20">
<path d="M1 20.8613H21V1H1V20.8613Z" fill="#389ED8"/>
</mask>
<g mask="url(#mask26_455_9253)">
<path fill-rule="evenodd" clip-rule="evenodd" d="M5.55927 15.976C5.01666 15.5874 4.50573 15.1618 4.0307 14.7026C4.32661 15.6575 4.75933 16.5706 5.31713 17.4173C5.76356 17.5753 6.24356 17.694 6.75284 17.77C6.28451 17.2263 5.88786 16.632 5.57141 16C5.56784 15.992 5.56356 15.9833 5.55927 15.976Z" fill="#389ED8"/>
</g>
<mask id="mask27_455_9253" style="mask-type:luminance" maskUnits="userSpaceOnUse" x="0" y="0" width="22" height="22">
<path d="M1 20.8613H21V1H1V20.8613Z" stroke="#389ED8" stroke-width="0.5"/>
</mask>
<g mask="url(#mask27_455_9253)">
<path fill-rule="evenodd" clip-rule="evenodd" d="M5.55927 15.976C5.01666 15.5874 4.50573 15.1618 4.0307 14.7026C4.32661 15.6575 4.75933 16.5706 5.31713 17.4173C5.76356 17.5753 6.24356 17.694 6.75284 17.77C6.28451 17.2263 5.88786 16.632 5.57141 16C5.56784 15.992 5.56356 15.9833 5.55927 15.976Z" stroke="#389ED8" stroke-width="0.5"/>
</g>
<mask id="mask28_455_9253" style="mask-type:luminance" maskUnits="userSpaceOnUse" x="1" y="1" width="20" height="20">
<path d="M1 20.8613H21V1H1V20.8613Z" fill="#389ED8"/>
</mask>
<g mask="url(#mask28_455_9253)">
<path fill-rule="evenodd" clip-rule="evenodd" d="M13.475 19.2175C12.6972 19.6555 11.8593 19.8915 10.98 19.8922C10.1 19.8922 9.26215 19.6555 8.48501 19.2175C8.24254 19.0782 8.011 18.9229 7.79215 18.7528C7.27223 18.7376 6.75454 18.6826 6.24429 18.5882C6.76929 19.1455 7.35501 19.6168 7.99286 19.9775C8.90001 20.4908 9.91501 20.7815 10.98 20.7808C12.0443 20.7808 13.0593 20.4908 13.9664 19.9775C14.6114 19.6128 15.2022 19.1348 15.7307 18.5688C15.2234 18.664 14.7086 18.7207 14.1914 18.7382C13.96 18.9162 13.7207 19.0782 13.475 19.2175Z" fill="#389ED8"/>
</g>
<mask id="mask29_455_9253" style="mask-type:luminance" maskUnits="userSpaceOnUse" x="0" y="0" width="22" height="22">
<path d="M1 20.8613H21V1H1V20.8613Z" stroke="#389ED8" stroke-width="0.5"/>
</mask>
<g mask="url(#mask29_455_9253)">
<path fill-rule="evenodd" clip-rule="evenodd" d="M13.475 19.2175C12.6972 19.6555 11.8593 19.8915 10.98 19.8922C10.1 19.8922 9.26215 19.6555 8.48501 19.2175C8.24254 19.0782 8.011 18.9229 7.79215 18.7528C7.27223 18.7376 6.75454 18.6826 6.24429 18.5882C6.76929 19.1455 7.35501 19.6168 7.99286 19.9775C8.90001 20.4908 9.91501 20.7815 10.98 20.7808C12.0443 20.7808 13.0593 20.4908 13.9664 19.9775C14.6114 19.6128 15.2021 19.1348 15.7307 18.5688C15.2234 18.664 14.7086 18.7207 14.1914 18.7382C13.96 18.9162 13.7207 19.0782 13.475 19.2175Z" stroke="#389ED8" stroke-width="0.5"/>
</g>
<mask id="mask30_455_9253" style="mask-type:luminance" maskUnits="userSpaceOnUse" x="1" y="1" width="20" height="20">
<path d="M1 20.8613H21V1H1V20.8613Z" fill="#389ED8"/>
</mask>
<g mask="url(#mask30_455_9253)">
<path fill-rule="evenodd" clip-rule="evenodd" d="M4.0307 7.17344C4.50407 6.71313 5.01332 6.28619 5.55427 5.89611C5.79999 5.40411 6.0807 4.94811 6.38999 4.53477C6.5007 4.38744 6.61642 4.24677 6.73356 4.11011C6.24599 4.18234 5.76757 4.30073 5.3057 4.46344C5.09141 4.78677 4.89142 5.12544 4.7107 5.48211C4.44356 6.01211 4.21784 6.57944 4.0307 7.17277" fill="#389ED8"/>
</g>
<mask id="mask31_455_9253" style="mask-type:luminance" maskUnits="userSpaceOnUse" x="0" y="0" width="22" height="22">
<path d="M1 20.8613H21V1H1V20.8613Z" stroke="#389ED8" stroke-width="0.5"/>
</mask>
<g mask="url(#mask31_455_9253)">
<path fill-rule="evenodd" clip-rule="evenodd" d="M4.0307 7.17344C4.50407 6.71313 5.01332 6.28619 5.55427 5.89611C5.79999 5.40411 6.0807 4.94811 6.38999 4.53477C6.5007 4.38744 6.61642 4.24677 6.73356 4.11011C6.24599 4.18234 5.76757 4.30073 5.3057 4.46344C5.09141 4.78677 4.89142 5.12544 4.7107 5.48211C4.44356 6.01211 4.21784 6.57944 4.0307 7.17277V7.17344Z" stroke="#389ED8" stroke-width="0.5"/>
</g>
<mask id="mask32_455_9253" style="mask-type:luminance" maskUnits="userSpaceOnUse" x="1" y="1" width="20" height="20">
<path d="M1 20.8613H21V1H1V20.8613Z" fill="#7E427D"/>
</mask>
<g mask="url(#mask32_455_9253)">
<path fill-rule="evenodd" clip-rule="evenodd" d="M18.3571 9.02859C18.264 8.39622 18.1208 7.77118 17.9286 7.15859C17.4535 6.6994 16.9426 6.27378 16.4 5.88525C16.67 6.42192 16.8986 7.00192 17.0786 7.61592C17.5629 8.06792 17.9893 8.54192 18.3571 9.02859Z" fill="#7E427D"/>
</g>
<mask id="mask33_455_9253" style="mask-type:luminance" maskUnits="userSpaceOnUse" x="0" y="0" width="22" height="22">
<path d="M1 20.8613H21V1H1V20.8613Z" stroke="#7E427D" stroke-width="0.5"/>
</mask>
<g mask="url(#mask33_455_9253)">
<path fill-rule="evenodd" clip-rule="evenodd" d="M18.3571 9.02859C18.264 8.39622 18.1208 7.77118 17.9286 7.15859C17.4535 6.6994 16.9426 6.27378 16.4 5.88525C16.67 6.42192 16.8986 7.00192 17.0786 7.61592C17.5629 8.06792 17.9893 8.54192 18.3571 9.02859Z" stroke="#7E427D" stroke-width="0.5"/>
</g>
<mask id="mask34_455_9253" style="mask-type:luminance" maskUnits="userSpaceOnUse" x="1" y="1" width="20" height="20">
<path d="M1 20.8613H21V1H1V20.8613Z" fill="#7E427D"/>
</mask>
<g mask="url(#mask34_455_9253)">
<path fill-rule="evenodd" clip-rule="evenodd" d="M3.60361 12.8327C3.69932 13.48 3.84289 14.106 4.03075 14.7027C4.50585 15.1618 5.01677 15.5874 5.55932 15.976C5.28076 15.4182 5.05375 14.8392 4.88075 14.2454C4.41243 13.8093 3.98514 13.3364 3.60361 12.832" fill="#7E427D"/>
</g>
<mask id="mask35_455_9253" style="mask-type:luminance" maskUnits="userSpaceOnUse" x="0" y="0" width="22" height="22">
<path d="M1 20.8613H21V1H1V20.8613Z" stroke="#7E427D" stroke-width="0.5"/>
</mask>
<g mask="url(#mask35_455_9253)">
<path fill-rule="evenodd" clip-rule="evenodd" d="M3.60361 12.8327C3.69932 13.48 3.84289 14.106 4.03075 14.7027C4.50585 15.1618 5.01677 15.5874 5.55932 15.976C5.28076 15.4182 5.05375 14.8392 4.88075 14.2454C4.41243 13.8093 3.98514 13.3364 3.60361 12.832V12.8327Z" stroke="#7E427D" stroke-width="0.5"/>
</g>
<mask id="mask36_455_9253" style="mask-type:luminance" maskUnits="userSpaceOnUse" x="1" y="1" width="20" height="20">
<path d="M1 20.8613H21V1H1V20.8613Z" fill="#7E427D"/>
</mask>
<g mask="url(#mask36_455_9253)">
<path fill-rule="evenodd" clip-rule="evenodd" d="M15.2257 17.7512C14.9043 18.1246 14.5579 18.4552 14.1914 18.7379C14.7086 18.7206 15.2234 18.6642 15.7307 18.5692C16.0643 18.2125 16.3736 17.8206 16.6536 17.3972C16.2107 17.5559 15.7322 17.6745 15.2257 17.7505" fill="#7E427D"/>
</g>
<mask id="mask37_455_9253" style="mask-type:luminance" maskUnits="userSpaceOnUse" x="0" y="0" width="22" height="22">
<path d="M1 20.8613H21V1H1V20.8613Z" stroke="#7E427D" stroke-width="0.5"/>
</mask>
<g mask="url(#mask37_455_9253)">
<path fill-rule="evenodd" clip-rule="evenodd" d="M15.2257 17.7512C14.9043 18.1246 14.5579 18.4552 14.1914 18.7379C14.7086 18.7206 15.2234 18.6642 15.7307 18.5692C16.0643 18.2125 16.3736 17.8206 16.6536 17.3972C16.2107 17.5559 15.7322 17.6745 15.2257 17.7505V17.7512Z" stroke="#7E427D" stroke-width="0.5"/>
</g>
<mask id="mask38_455_9253" style="mask-type:luminance" maskUnits="userSpaceOnUse" x="1" y="1" width="20" height="20">
<path d="M1 20.8613H21V1H1V20.8613Z" fill="#7E427D"/>
</mask>
<g mask="url(#mask38_455_9253)">
<path fill-rule="evenodd" clip-rule="evenodd" d="M6.73358 4.1102C7.05501 3.73687 7.40215 3.40687 7.76858 3.12354C7.23858 3.14354 6.72358 3.1982 6.2293 3.2922C5.89501 3.64887 5.58644 4.04087 5.30573 4.4642C5.7493 4.3062 6.22715 4.18754 6.7343 4.11087" fill="#7E427D"/>
</g>
<mask id="mask39_455_9253" style="mask-type:luminance" maskUnits="userSpaceOnUse" x="0" y="0" width="22" height="22">
<path d="M1 20.8613H21V1H1V20.8613Z" stroke="#7E427D" stroke-width="0.5"/>
</mask>
<g mask="url(#mask39_455_9253)">
<path fill-rule="evenodd" clip-rule="evenodd" d="M6.73358 4.1102C7.05501 3.73687 7.40215 3.40687 7.76858 3.12354C7.23858 3.14354 6.72358 3.1982 6.2293 3.2922C5.89501 3.64887 5.58644 4.04087 5.30573 4.4642C5.7493 4.3062 6.22715 4.18754 6.7343 4.11087L6.73358 4.1102Z" stroke="#7E427D" stroke-width="0.5"/>
</g>
<mask id="mask40_455_9253" style="mask-type:luminance" maskUnits="userSpaceOnUse" x="1" y="1" width="20" height="20">
<path d="M1 20.8613H21V1H1V20.8613Z" fill="#F5B918"/>
</mask>
<g mask="url(#mask40_455_9253)">
<path fill-rule="evenodd" clip-rule="evenodd" d="M5.31713 17.4174C5.1591 17.3621 5.0035 17.3009 4.8507 17.2341C3.91142 16.8147 3.16499 16.2027 2.66999 15.4007C2.2507 14.7187 2.0507 13.9607 2.04999 13.1541C2.04999 12.8714 2.07927 12.5821 2.12856 12.2894C1.88113 11.8617 1.67185 11.4158 1.50285 10.9561C1.24142 11.6894 1.09999 12.4294 1.09927 13.1547C1.09927 14.0994 1.33785 15.0194 1.8457 15.8434C2.44427 16.8167 3.35284 17.5521 4.44213 18.0367C5.01643 18.2884 5.62167 18.4734 6.24427 18.5874C5.90055 18.2224 5.5904 17.831 5.31713 17.4174Z" fill="#F5B918"/>
</g>
<mask id="mask41_455_9253" style="mask-type:luminance" maskUnits="userSpaceOnUse" x="0" y="0" width="22" height="22">
<path d="M1 20.8613H21V1H1V20.8613Z" stroke="#F5B918" stroke-width="0.5"/>
</mask>
<g mask="url(#mask41_455_9253)">
<path fill-rule="evenodd" clip-rule="evenodd" d="M5.31713 17.4174C5.1591 17.3621 5.0035 17.3009 4.8507 17.2341C3.91142 16.8147 3.16499 16.2027 2.66999 15.4007C2.2507 14.7187 2.0507 13.9607 2.04999 13.1541C2.04999 12.8714 2.07927 12.5821 2.12856 12.2894C1.88113 11.8617 1.67185 11.4158 1.50285 10.9561C1.24142 11.6894 1.09999 12.4294 1.09927 13.1547C1.09927 14.0994 1.33785 15.0194 1.8457 15.8434C2.44427 16.8167 3.35285 17.5521 4.44213 18.0367C5.01643 18.2884 5.62167 18.4734 6.24427 18.5874C5.90054 18.2224 5.5904 17.831 5.31713 17.4174Z" stroke="#F5B918" stroke-width="0.5"/>
</g>
<mask id="mask42_455_9253" style="mask-type:luminance" maskUnits="userSpaceOnUse" x="1" y="1" width="20" height="20">
<path d="M1 20.8613H21V1H1V20.8613Z" fill="#F5B918"/>
</mask>
<g mask="url(#mask42_455_9253)">
<path fill-rule="evenodd" clip-rule="evenodd" d="M16.6429 4.44393C16.8015 4.50059 16.9586 4.56059 17.1086 4.62726C18.0486 5.04726 18.7943 5.65859 19.29 6.46059C19.7086 7.14259 19.9086 7.90059 19.9093 8.70726C19.9093 8.98993 19.8807 9.27926 19.8307 9.57259C20.0829 10.0113 20.2943 10.4566 20.4572 10.9046C20.7186 10.1713 20.86 9.43193 20.8607 8.70659C20.8607 7.76193 20.6222 6.84193 20.1136 6.01793C19.5157 5.04459 18.6065 4.30926 17.5179 3.82459C16.9434 3.57283 16.3379 3.38789 15.715 3.27393C16.0594 3.63841 16.3703 4.02985 16.6429 4.44393Z" fill="#F5B918"/>
</g>
<mask id="mask43_455_9253" style="mask-type:luminance" maskUnits="userSpaceOnUse" x="0" y="0" width="22" height="22">
<path d="M1 20.8613H21V1H1V20.8613Z" stroke="#F5B918" stroke-width="0.5"/>
</mask>
<g mask="url(#mask43_455_9253)">
<path fill-rule="evenodd" clip-rule="evenodd" d="M16.6429 4.44393C16.8015 4.50059 16.9586 4.56059 17.1086 4.62726C18.0486 5.04726 18.7943 5.65859 19.29 6.46059C19.7086 7.14259 19.9086 7.90059 19.9093 8.70726C19.9093 8.98993 19.8807 9.27926 19.8307 9.57259C20.0829 10.0113 20.2943 10.4566 20.4572 10.9046C20.7186 10.1713 20.86 9.43193 20.8607 8.70659C20.8607 7.76193 20.6222 6.84193 20.1136 6.01793C19.5157 5.04459 18.6065 4.30926 17.5179 3.82459C16.9434 3.57283 16.3379 3.38789 15.715 3.27393C16.0594 3.63841 16.3703 4.02985 16.6429 4.44393Z" stroke="#F5B918" stroke-width="0.5"/>
</g>
<mask id="mask44_455_9253" style="mask-type:luminance" maskUnits="userSpaceOnUse" x="1" y="1" width="20" height="20">
<path d="M1 20.8613H21V1H1V20.8613Z" fill="#F5B918"/>
</mask>
<g mask="url(#mask44_455_9253)">
<path fill-rule="evenodd" clip-rule="evenodd" d="M11.0014 18.4227C10.3285 18.2726 9.66852 18.0756 9.02715 17.8334C8.73358 17.8567 8.44144 17.872 8.15787 17.872C7.67144 17.872 7.20144 17.8374 6.75287 17.77C7.07644 18.1434 7.4243 18.4714 7.79215 18.7527C7.91358 18.7567 8.03501 18.7607 8.15787 18.7607C9.07573 18.7607 10.0329 18.644 11.0014 18.4227Z" fill="#F5B918"/>
</g>
<mask id="mask45_455_9253" style="mask-type:luminance" maskUnits="userSpaceOnUse" x="0" y="0" width="22" height="22">
<path d="M1 20.8613H21V1H1V20.8613Z" stroke="#F5B918" stroke-width="0.5"/>
</mask>
<g mask="url(#mask45_455_9253)">
<path fill-rule="evenodd" clip-rule="evenodd" d="M11.0014 18.4227C10.3285 18.2726 9.66852 18.0756 9.02715 17.8334C8.73358 17.8567 8.44144 17.872 8.15787 17.872C7.67144 17.872 7.20144 17.8374 6.75287 17.77C7.07644 18.1434 7.4243 18.4714 7.79215 18.7527C7.91358 18.7567 8.03501 18.7607 8.15787 18.7607C9.07573 18.7607 10.0329 18.644 11.0014 18.4227Z" stroke="#F5B918" stroke-width="0.5"/>
</g>
<mask id="mask46_455_9253" style="mask-type:luminance" maskUnits="userSpaceOnUse" x="1" y="1" width="20" height="20">
<path d="M1 20.8613H21V1H1V20.8613Z" fill="#F5B918"/>
</mask>
<g mask="url(#mask46_455_9253)">
<path fill-rule="evenodd" clip-rule="evenodd" d="M10.9578 3.43883C11.6143 3.5855 12.2743 3.77883 12.9321 4.02816C13.2264 4.00483 13.5178 3.98883 13.8021 3.9895C14.2878 3.9895 14.7578 4.02483 15.2071 4.0915C14.8971 3.73183 14.5486 3.40258 14.1671 3.10883C14.0457 3.10406 13.9243 3.1014 13.8028 3.10083C12.8843 3.10083 11.9264 3.2175 10.9578 3.43883Z" fill="#F5B918"/>
</g>
<mask id="mask47_455_9253" style="mask-type:luminance" maskUnits="userSpaceOnUse" x="0" y="0" width="22" height="22">
<path d="M1 20.8613H21V1H1V20.8613Z" stroke="#F5B918" stroke-width="0.5"/>
</mask>
<g mask="url(#mask47_455_9253)">
<path fill-rule="evenodd" clip-rule="evenodd" d="M10.9578 3.43883C11.6143 3.5855 12.2743 3.77883 12.9321 4.02816C13.2264 4.00483 13.5178 3.98883 13.8021 3.9895C14.2878 3.9895 14.7578 4.02483 15.2071 4.0915C14.8971 3.73183 14.5486 3.40258 14.1671 3.10883C14.0457 3.10406 13.9243 3.1014 13.8028 3.10083C12.8843 3.10083 11.9264 3.2175 10.9578 3.43883Z" stroke="#F5B918" stroke-width="0.5"/>
</g>
<mask id="mask48_455_9253" style="mask-type:luminance" maskUnits="userSpaceOnUse" x="1" y="1" width="20" height="20">
<path d="M1 20.8613H21V1H1V20.8613Z" fill="#F5B918"/>
</mask>
<g mask="url(#mask48_455_9253)">
<path fill-rule="evenodd" clip-rule="evenodd" d="M3.60428 9.05127C3.69928 8.39994 3.84285 7.77194 4.03071 7.17261C3.55214 7.63994 3.12357 8.12861 2.75428 8.63261C2.51857 8.95527 2.30857 9.28527 2.12 9.61794C2.19714 10.0573 2.33142 10.5039 2.51571 10.9519C2.77836 10.3104 3.12197 9.70029 3.53928 9.13461C3.55928 9.10594 3.58357 9.07927 3.60428 9.05127Z" fill="#F5B918"/>
</g>
<mask id="mask49_455_9253" style="mask-type:luminance" maskUnits="userSpaceOnUse" x="0" y="0" width="22" height="22">
<path d="M1 20.8613H21V1H1V20.8613Z" stroke="#F5B918" stroke-width="0.5"/>
</mask>
<g mask="url(#mask49_455_9253)">
<path fill-rule="evenodd" clip-rule="evenodd" d="M3.60428 9.05127C3.69928 8.39994 3.84285 7.77194 4.03071 7.17261C3.55214 7.63994 3.12357 8.12861 2.75428 8.63261C2.51857 8.95527 2.30857 9.28527 2.12 9.61794C2.19714 10.0573 2.33142 10.5039 2.51571 10.9519C2.77836 10.3104 3.12197 9.70029 3.53928 9.13461C3.55928 9.10594 3.58357 9.07927 3.60428 9.05127Z" stroke="#F5B918" stroke-width="0.5"/>
</g>
<mask id="mask50_455_9253" style="mask-type:luminance" maskUnits="userSpaceOnUse" x="1" y="1" width="20" height="20">
<path d="M1 20.8613H21V1H1V20.8613Z" fill="#F5B918"/>
</mask>
<g mask="url(#mask50_455_9253)">
<path fill-rule="evenodd" clip-rule="evenodd" d="M18.4207 12.7267C18.3993 12.7554 18.3764 12.7827 18.3564 12.81C18.2639 13.4451 18.1209 14.0728 17.9286 14.688C18.4071 14.2214 18.8357 13.7327 19.2057 13.2287C19.4414 12.906 19.6507 12.576 19.8393 12.2434C19.7568 11.787 19.6242 11.3397 19.4436 10.9087C19.181 11.5504 18.8377 12.1607 18.4207 12.7267Z" fill="#F5B918"/>
</g>
<mask id="mask51_455_9253" style="mask-type:luminance" maskUnits="userSpaceOnUse" x="0" y="0" width="22" height="22">
<path d="M1 20.8613H21V1H1V20.8613Z" stroke="#F5B918" stroke-width="0.5"/>
</mask>
<g mask="url(#mask51_455_9253)">
<path fill-rule="evenodd" clip-rule="evenodd" d="M18.4207 12.7267C18.3993 12.7554 18.3764 12.7827 18.3564 12.81C18.2639 13.4451 18.1209 14.0728 17.9286 14.688C18.4071 14.2214 18.8357 13.7327 19.2057 13.2287C19.4414 12.906 19.6507 12.576 19.8393 12.2434C19.7568 11.787 19.6242 11.3397 19.4436 10.9087C19.181 11.5504 18.8377 12.1607 18.4207 12.7267Z" stroke="#F5B918" stroke-width="0.5"/>
</g>
<mask id="mask52_455_9253" style="mask-type:luminance" maskUnits="userSpaceOnUse" x="1" y="1" width="20" height="20">
<path d="M1 20.8613H21V1H1V20.8613Z" fill="#F5B918"/>
</mask>
<g mask="url(#mask52_455_9253)">
<path fill-rule="evenodd" clip-rule="evenodd" d="M7.70501 5.61135C8.72565 5.05987 9.81988 4.63665 10.9593 4.35269C10.3131 4.19473 9.65352 4.08923 8.98787 4.03735C8.39715 4.26402 7.8093 4.53002 7.23073 4.84069C6.64675 5.15632 6.08663 5.50892 5.5543 5.89602C5.2763 6.45566 5.05 7.03644 4.87787 7.63202C5.71983 6.84417 6.67059 6.16463 7.70501 5.61135Z" fill="#F5B918"/>
</g>
<mask id="mask53_455_9253" style="mask-type:luminance" maskUnits="userSpaceOnUse" x="0" y="0" width="22" height="22">
<path d="M1 20.8613H21V1H1V20.8613Z" stroke="#F5B918" stroke-width="0.5"/>
</mask>
<g mask="url(#mask53_455_9253)">
<path fill-rule="evenodd" clip-rule="evenodd" d="M7.70501 5.61135C8.72565 5.05987 9.81988 4.63665 10.9593 4.35269C10.3131 4.19473 9.65352 4.08923 8.98787 4.03735C8.39715 4.26402 7.8093 4.53002 7.23073 4.84069C6.64675 5.15632 6.08663 5.50892 5.5543 5.89602C5.2763 6.45566 5.05 7.03644 4.87787 7.63202C5.71983 6.84417 6.67059 6.16463 7.70501 5.61135Z" stroke="#F5B918" stroke-width="0.5"/>
</g>
<mask id="mask54_455_9253" style="mask-type:luminance" maskUnits="userSpaceOnUse" x="1" y="1" width="20" height="20">
<path d="M1 20.8613H21V1H1V20.8613Z" fill="#E9831C"/>
</mask>
<g mask="url(#mask54_455_9253)">
<path fill-rule="evenodd" clip-rule="evenodd" d="M12.9322 4.02805C12.2908 3.78572 11.6309 3.58872 10.9579 3.43872C10.3036 3.58872 9.6443 3.78539 8.98859 4.03739C9.63002 4.08539 10.2907 4.19072 10.96 4.35272C11.6286 4.18739 12.29 4.07939 12.9322 4.02805Z" fill="#E9831C"/>
</g>
<mask id="mask55_455_9253" style="mask-type:luminance" maskUnits="userSpaceOnUse" x="0" y="0" width="22" height="22">
<path d="M1 20.8613H21V1H1V20.8613Z" stroke="#E9831C" stroke-width="0.5"/>
</mask>
<g mask="url(#mask55_455_9253)">
<path fill-rule="evenodd" clip-rule="evenodd" d="M12.9322 4.02805C12.2908 3.78572 11.6309 3.58872 10.9579 3.43872C10.3036 3.58872 9.6443 3.78539 8.98859 4.03739C9.63002 4.08539 10.2907 4.19072 10.96 4.35272C11.6286 4.18739 12.29 4.07939 12.9322 4.02805Z" stroke="#E9831C" stroke-width="0.5"/>
</g>
<mask id="mask56_455_9253" style="mask-type:luminance" maskUnits="userSpaceOnUse" x="1" y="1" width="20" height="20">
<path d="M1 20.8613H21V1H1V20.8613Z" fill="#E9831C"/>
</mask>
<g mask="url(#mask56_455_9253)">
<path fill-rule="evenodd" clip-rule="evenodd" d="M19.4435 10.9094C19.6293 11.3574 19.7628 11.804 19.8393 12.2427C20.0893 11.8027 20.2964 11.3554 20.4571 10.9047C20.2878 10.4452 20.0783 9.99948 19.8307 9.57202C19.7564 10.012 19.6257 10.4594 19.4435 10.9094Z" fill="#E9831C"/>
</g>
<mask id="mask57_455_9253" style="mask-type:luminance" maskUnits="userSpaceOnUse" x="0" y="0" width="22" height="22">
<path d="M1 20.8613H21V1H1V20.8613Z" stroke="#E9831C" stroke-width="0.5"/>
</mask>
<g mask="url(#mask57_455_9253)">
<path fill-rule="evenodd" clip-rule="evenodd" d="M19.4435 10.9094C19.6293 11.3574 19.7628 11.804 19.8393 12.2427C20.0893 11.8027 20.2964 11.3554 20.4571 10.9047C20.2878 10.4452 20.0783 9.99948 19.8307 9.57202C19.7564 10.012 19.6257 10.4594 19.4435 10.9094Z" stroke="#E9831C" stroke-width="0.5"/>
</g>
<mask id="mask58_455_9253" style="mask-type:luminance" maskUnits="userSpaceOnUse" x="1" y="1" width="20" height="20">
<path d="M1 20.8613H21V1H1V20.8613Z" fill="#E9831C"/>
</mask>
<g mask="url(#mask58_455_9253)">
<path fill-rule="evenodd" clip-rule="evenodd" d="M9.02713 17.8334C9.68499 18.0821 10.3457 18.2767 11.0014 18.4227C11.6564 18.2734 12.315 18.0761 12.9707 17.8241C12.3053 17.7719 11.6459 17.6662 11 17.5081C10.3537 17.6697 9.69361 17.7785 9.02713 17.8334Z" fill="#E9831C"/>
</g>
<mask id="mask59_455_9253" style="mask-type:luminance" maskUnits="userSpaceOnUse" x="0" y="0" width="22" height="22">
<path d="M1 20.8613H21V1H1V20.8613Z" stroke="#E9831C" stroke-width="0.5"/>
</mask>
<g mask="url(#mask59_455_9253)">
<path fill-rule="evenodd" clip-rule="evenodd" d="M9.02713 17.8334C9.68499 18.0821 10.3457 18.2767 11.0014 18.4227C11.6564 18.2734 12.315 18.0761 12.9707 17.8241C12.3053 17.7719 11.6459 17.6662 11 17.5081C10.3537 17.6697 9.69361 17.7785 9.02713 17.8334Z" stroke="#E9831C" stroke-width="0.5"/>
</g>
<mask id="mask60_455_9253" style="mask-type:luminance" maskUnits="userSpaceOnUse" x="1" y="1" width="20" height="20">
<path d="M1 20.8613H21V1H1V20.8613Z" fill="#E9831C"/>
</mask>
<g mask="url(#mask60_455_9253)">
<path fill-rule="evenodd" clip-rule="evenodd" d="M1.22647 10.9522C1.19949 10.5216 1.17968 10.0748 1.16735 9.6189C1.13075 10.0482 1.09991 10.4958 1.07513 10.9569C1.09947 11.4049 1.13095 11.8502 1.16863 12.2896C1.17973 11.8496 1.19926 11.4022 1.22647 10.9522Z" fill="#E9831C"/>
</g>
<mask id="mask61_455_9253" style="mask-type:luminance" maskUnits="userSpaceOnUse" x="0" y="0" width="22" height="22">
<path d="M1 20.8613H21V1H1V20.8613Z" stroke="#E9831C" stroke-width="0.5"/>
</mask>
<g mask="url(#mask61_455_9253)">
<path fill-rule="evenodd" clip-rule="evenodd" d="M2.5157 10.9522C2.33514 10.5216 2.20253 10.0748 2.11998 9.6189C1.87506 10.0482 1.66864 10.4958 1.50284 10.9569C1.6657 11.4049 1.87641 11.8502 2.12855 12.2896C2.20284 11.8496 2.33355 11.4022 2.5157 10.9522Z" stroke="#E9831C" stroke-width="0.5"/>
</g>
<mask id="mask62_455_9253" style="mask-type:luminance" maskUnits="userSpaceOnUse" x="1" y="1" width="20" height="20">
<path d="M1 20.8613H21V1H1V20.8613Z" fill="#00863E"/>
</mask>
<g mask="url(#mask62_455_9253)">
<path fill-rule="evenodd" clip-rule="evenodd" d="M4.87789 7.632C5.05789 7.01666 5.28504 6.43466 5.55432 5.896C5.01332 6.28578 4.50406 6.71251 4.03075 7.17266C3.83873 7.78792 3.69595 8.41565 3.60361 9.05066C3.98433 8.54459 4.41018 8.06996 4.87789 7.632Z" fill="#00863E"/>
</g>
<mask id="mask63_455_9253" style="mask-type:luminance" maskUnits="userSpaceOnUse" x="0" y="0" width="22" height="22">
<path d="M1 20.8613H21V1H1V20.8613Z" stroke="#00863E" stroke-width="0.5"/>
</mask>
<g mask="url(#mask63_455_9253)">
<path fill-rule="evenodd" clip-rule="evenodd" d="M4.87789 7.632C5.05789 7.01666 5.28504 6.43466 5.55432 5.896C5.01332 6.28578 4.50406 6.71251 4.03075 7.17266C3.83873 7.78792 3.69595 8.41565 3.60361 9.05066C3.98433 8.54459 4.41018 8.06996 4.87789 7.632Z" stroke="#00863E" stroke-width="0.5"/>
</g>
<mask id="mask64_455_9253" style="mask-type:luminance" maskUnits="userSpaceOnUse" x="1" y="1" width="20" height="20">
<path d="M1 20.8613H21V1H1V20.8613Z" fill="#00863E"/>
</mask>
<g mask="url(#mask64_455_9253)">
<path fill-rule="evenodd" clip-rule="evenodd" d="M15.2072 4.09131C15.7157 4.16731 16.1965 4.28598 16.6429 4.44464C16.5472 4.30131 16.45 4.16064 16.3486 4.02464C16.1521 3.76353 15.9403 3.51271 15.7143 3.27331C15.2043 3.1791 14.6868 3.12403 14.1672 3.10864C14.535 3.38998 14.8829 3.71864 15.2057 4.09131" fill="#00863E"/>
</g>
<mask id="mask65_455_9253" style="mask-type:luminance" maskUnits="userSpaceOnUse" x="0" y="0" width="22" height="22">
<path d="M1 20.8613H21V1H1V20.8613Z" stroke="#00863E" stroke-width="0.5"/>
</mask>
<g mask="url(#mask65_455_9253)">
<path fill-rule="evenodd" clip-rule="evenodd" d="M15.2072 4.09131C15.7157 4.16731 16.1965 4.28598 16.6429 4.44464C16.5472 4.30131 16.45 4.16064 16.3486 4.02464C16.1521 3.76353 15.9403 3.51271 15.7143 3.27331C15.2043 3.1791 14.6868 3.12403 14.1672 3.10864C14.535 3.38998 14.8829 3.71864 15.2057 4.09131H15.2072Z" stroke="#00863E" stroke-width="0.5"/>
</g>
<mask id="mask66_455_9253" style="mask-type:luminance" maskUnits="userSpaceOnUse" x="1" y="1" width="20" height="20">
<path d="M1 20.8613H21V1H1V20.8613Z" fill="#00863E"/>
</mask>
<g mask="url(#mask66_455_9253)">
<path fill-rule="evenodd" clip-rule="evenodd" d="M6.75288 17.7701C6.26264 17.6984 5.78156 17.58 5.31717 17.4167C5.59023 17.8305 5.90039 18.2219 6.24431 18.5867C6.74217 18.6814 7.26003 18.7354 7.79217 18.7534C7.4107 18.4596 7.06246 18.1301 6.75288 17.7701Z" fill="#00863E"/>
</g>
<mask id="mask67_455_9253" style="mask-type:luminance" maskUnits="userSpaceOnUse" x="0" y="0" width="22" height="22">
<path d="M1 20.8613H21V1H1V20.8613Z" stroke="#00863E" stroke-width="0.5"/>
</mask>
<g mask="url(#mask67_455_9253)">
<path fill-rule="evenodd" clip-rule="evenodd" d="M6.75288 17.7701C6.26264 17.6984 5.78156 17.58 5.31717 17.4167C5.59023 17.8305 5.90039 18.2219 6.24431 18.5867C6.74217 18.6814 7.26003 18.7354 7.79217 18.7534C7.4107 18.4596 7.06246 18.1301 6.75288 17.7701Z" stroke="#00863E" stroke-width="0.5"/>
</g>
<mask id="mask68_455_9253" style="mask-type:luminance" maskUnits="userSpaceOnUse" x="1" y="1" width="20" height="20">
<path d="M1 21H21V1H1V21Z" fill="#00863E"/>
</mask>
<g mask="url(#mask68_455_9253)">
<path fill-rule="evenodd" clip-rule="evenodd" d="M17.0822 14.2294C16.9022 14.8447 16.675 15.4274 16.405 15.9654C16.9593 15.5654 17.4693 15.1381 17.9286 14.6887C18.1208 14.0733 18.2636 13.4453 18.3557 12.8101C17.9756 13.3164 17.5495 13.7912 17.0822 14.2294Z" fill="#00863E"/>
</g>
<mask id="mask69_455_9253" style="mask-type:luminance" maskUnits="userSpaceOnUse" x="0" y="0" width="22" height="22">
<path d="M1 20.8613H21V1H1V20.8613Z" stroke="#00863E" stroke-width="0.5"/>
</mask>
<g mask="url(#mask69_455_9253)">
<path fill-rule="evenodd" clip-rule="evenodd" d="M17.0822 14.2294C16.9022 14.8447 16.675 15.4274 16.405 15.9654C16.9593 15.5654 17.4693 15.1381 17.9286 14.6887C18.1208 14.0733 18.2636 13.4453 18.3557 12.8101C17.9756 13.3164 17.5495 13.7912 17.0822 14.2294Z" stroke="#00863E" stroke-width="0.5"/>
</g>
</svg>
