<svg width="48" height="17" viewBox="0 0 48 17" fill="none" xmlns="http://www.w3.org/2000/svg">
<g clip-path="url(#clip0_455_9236)">
<path d="M24.8244 5.46352C24.797 7.62348 26.7485 8.82874 28.2186 9.54541C29.729 10.2807 30.2363 10.7522 30.2303 11.4098C30.219 12.416 29.0255 12.8602 27.9087 12.8774C25.9601 12.9076 24.8272 12.3511 23.9265 11.9303L23.2245 15.2161C24.1282 15.6327 25.8015 15.996 27.5367 16.012C31.6098 16.012 34.2745 14.0006 34.289 10.882C34.3049 6.92406 28.8167 6.70499 28.8542 4.93591C28.8671 4.39949 29.3787 3.82705 30.4999 3.6815C31.0549 3.60798 32.5868 3.55171 34.3237 4.35184L35.0053 1.17268C34.0713 0.832447 32.8708 0.506653 31.3762 0.506653C27.5425 0.506653 24.8461 2.54544 24.8244 5.46352ZM41.5557 0.780492C40.8119 0.780492 40.1852 1.21451 39.9055 1.88054L34.0872 15.7784H38.1573L38.9673 13.5392H43.9409L44.4107 15.7784H47.9981L44.8676 0.780492H41.5557ZM42.1251 4.832L43.2997 10.4639H40.0828L42.1251 4.832ZM19.8896 0.78068L16.6813 15.7783H20.5598L23.7666 0.780304H19.8896M14.152 0.780304L10.115 10.9887L8.48203 2.30893C8.29042 1.33999 7.53373 0.780492 6.69342 0.780492H0.0943222L0.00189209 1.21601C1.35666 1.5101 2.89591 1.98445 3.82846 2.49199C4.39917 2.80203 4.5619 3.07305 4.74939 3.80979L7.84233 15.7784H11.9409L18.2247 0.780492H14.152" fill="url(#paint0_linear_455_9236)"/>
</g>
<defs>
<linearGradient id="paint0_linear_455_9236" x1="22.0677" y1="16.323" x2="22.5166" y2="0.398829" gradientUnits="userSpaceOnUse">
<stop stop-color="#222357"/>
<stop offset="1" stop-color="#254AA5"/>
</linearGradient>
<clipPath id="clip0_455_9236">
<rect width="48" height="15.5676" fill="white" transform="translate(0 0.506592)"/>
</clipPath>
</defs>
</svg>
