<svg width="22" height="12" viewBox="0 0 22 12" fill="none" xmlns="http://www.w3.org/2000/svg">
<g id="icon-orientation-panorama-6800d 1" clip-path="url(#clip0_107_1562)">
<path id="Vector" fill-rule="evenodd" clip-rule="evenodd" d="M11.0098 11C7.31829 10.9496 3.63164 11.2848 0.00976562 12V0C7.28249 1.33333 14.737 1.33333 22.0098 0V12C18.3879 11.2848 14.7012 10.9496 11.0098 11ZM2.00977 9.6C3.22977 9.418 4.57977 9.279 5.99977 9.178V2.82C4.57977 2.72 3.22977 2.58 2.00977 2.398V9.598V9.6ZM13.9998 2.93C13.0198 2.971 12.0198 2.999 11.0098 2.999C9.99977 2.999 8.98977 2.971 7.99977 2.93V9.068C8.98977 9.027 9.98977 8.999 11.0098 8.999C12.0298 8.999 13.0198 9.027 13.9998 9.068V2.93ZM20.0098 2.398C18.7798 2.581 17.4198 2.721 15.9998 2.822V9.176C17.4198 9.276 18.7798 9.417 20.0098 9.6V2.4V2.398Z" fill="#02001E"/>
</g>
<defs>
<clipPath id="clip0_107_1562">
<rect width="22" height="12" fill="white"/>
</clipPath>
</defs>
</svg>
